<svg width="38" height="40" viewBox="0 0 38 40" fill="none" xmlns="http://www.w3.org/2000/svg"><path fill-rule="evenodd" clip-rule="evenodd" d="M22.6449 0H14.7191C13.4736 0 12.4546 1.01903 12.4546 2.26452V2.9248H4.8748C3.79785 2.9248 2.9248 3.79785 2.9248 4.8748V6.3732C1.75898 7.0475 0.974609 8.30793 0.974609 9.75156V20.485C0.383741 20.55 0 20.9835 0 21.6088V37.8693C0 38.5487 0.452903 39.0016 1.13226 39.0016H7.92581V38.9978H29.4395V39.0016H36.233C36.9124 39.0016 37.3653 38.5487 37.3653 37.8693V21.6088C37.3653 20.9295 36.9124 20.4766 36.233 20.4766H36.0746V9.75156C36.0746 8.30809 35.2904 7.04778 34.1248 6.37343V4.8748C34.1248 3.79785 33.2518 2.9248 32.1748 2.9248H24.9094V2.26452C24.9094 1.01903 23.8904 0 22.6449 0Z" fill="#F9D448"/><path d="M2.9248 4.87578C2.9248 3.79883 3.79785 2.92578 4.8748 2.92578H32.1748C33.2518 2.92578 34.1248 3.79883 34.1248 4.87578V15.6008C34.1248 16.6777 33.2518 17.5508 32.1748 17.5508H4.87481C3.79785 17.5508 2.9248 16.6777 2.9248 15.6008V4.87578Z" fill="#F9D448"/><path d="M14.7191 3.05176e-05H22.6449C23.8904 3.05176e-05 24.9094 1.01906 24.9094 2.26455V11.3226C24.9094 12.5681 23.8904 13.5871 22.6449 13.5871H14.7191C13.4736 13.5871 12.4546 12.5681 12.4546 11.3226V2.26455C12.4546 1.01906 13.4736 3.05176e-05 14.7191 3.05176e-05Z" fill="#F9D448"/><path d="M0.974609 9.75156C0.974609 7.59765 2.7207 5.85156 4.87461 5.85156H32.1746C34.3285 5.85156 36.0746 7.59765 36.0746 9.75156V22.4266H0.974609V9.75156Z" fill="#AA572A"/><rect x="4.875" y="9.75003" width="27.3" height="11.7" fill="#743611"/><path d="M33.15 21.4499H4.875V36.0749H33.15V21.4499Z" fill="#AA572A"/><path d="M32.8358 34.4727H4.5293V39.0017H32.8358V34.4727Z" fill="#F9D448"/><path d="M14.7191 16.3516H22.6449C23.8904 16.3516 24.9094 17.3706 24.9094 18.6161V27.6741C24.9094 28.9196 23.8904 29.9387 22.6449 29.9387H14.7191C13.4736 29.9387 12.4546 28.9196 12.4546 27.6741V18.6161C12.4546 17.3706 13.4736 16.3516 14.7191 16.3516Z" fill="#F9D448"/><path fill-rule="evenodd" clip-rule="evenodd" d="M21.5124 21.4439C21.5124 19.8588 20.2669 18.6133 18.6817 18.6133C17.0966 18.6133 15.8511 19.8588 15.8511 21.4439C15.8511 22.3854 16.2904 23.207 16.9793 23.7191L16.0781 26.0848V26.4244C16.0781 27.1038 16.531 27.5567 17.2104 27.5567H19.9278H20.2675C20.8336 27.4435 21.2865 26.7641 21.0601 26.198L20.384 23.7192C21.073 23.2071 21.5124 22.3854 21.5124 21.4439Z" fill="#E3A23C"/><path d="M1.13226 20.4766H6.79355C7.4729 20.4766 7.92581 20.9295 7.92581 21.6088V39.0016H1.13226C0.452903 39.0016 0 38.5487 0 37.8693V21.6088C0 20.9295 0.452903 20.4766 1.13226 20.4766Z" fill="#F9D448"/><path d="M30.5717 20.4766H36.233C36.9124 20.4766 37.3653 20.9295 37.3653 21.6088V37.8693C37.3653 38.5487 36.9124 39.0016 36.233 39.0016H29.4395V21.6088C29.4395 20.9295 29.8924 20.4766 30.5717 20.4766Z" fill="#F9D448"/></svg>